<svg xmlns="http://www.w3.org/2000/svg" width="141" height="192" fill="none" viewBox="0 0 141 192"><path fill="#00d0ff" d="M96.034 14.31c1.41 1.744 2.128 4.097 3.565 8.804L131 125.936a131 131 0 0 0-37.541-12.669l-20.445-68.87a2.65 2.65 0 0 0-.961-1.373 2.667 2.667 0 0 0-4.145 1.381L47.71 113.232A131 131 0 0 0 10 125.92L41.554 23.09c1.443-4.698 2.164-7.048 3.573-8.789a11.6 11.6 0 0 1 4.701-3.467C51.91 10 54.375 10 59.305 10h22.537c4.936 0 7.404 0 9.488.836a11.6 11.6 0 0 1 4.703 3.474M99.792 130.83c-5.177 4.411-15.51 7.421-27.41 7.421-14.608 0-26.851-4.533-30.1-10.629-1.161 3.493-1.422 7.492-1.422 10.046 0 0-.765 12.543 7.987 21.268 0-4.53 3.685-8.203 8.23-8.203 7.788 0 7.779 6.774 7.772 12.27v.49c0 8.342 5.114 15.493 12.388 18.507a16.8 16.8 0 0 1-1.696-7.372c0-7.956 4.686-10.918 10.132-14.36 4.333-2.74 9.147-5.783 12.465-11.888a22.4 22.4 0 0 0 2.714-10.712c0-2.384-.372-4.682-1.06-6.838"/></svg>