<svg xmlns="http://www.w3.org/2000/svg" width="192" height="192" fill="none" viewBox="0 0 192 192"><path fill="#00d0ff" fill-rule="evenodd" d="M154.31 10.25a27.44 27.44 0 0 1 27.44 27.44v116.621a27.44 27.44 0 0 1-27.44 27.439H37.69a27.44 27.44 0 0 1-27.44-27.439V10.25zm-82.149 93.64c-11.147 0-18.521 6.173-18.521 17.664v28.812c0 11.662 6.86 17.664 17.664 17.664 11.147.172 19.036-7.203 18.35-19.722H76.963c.343 4.459-1.2 8.403-5.145 8.403-3.773-.172-5.488-2.744-5.488-8.061v-25.038c0-5.488 1.2-8.404 5.488-8.404 3.43-.171 5.488 3.259 5.145 7.89h12.691c.343-12.177-6.517-19.38-17.493-19.208m39.788-.172c-10.633 0-17.15 7.203-17.15 17.493 0 9.261 3.259 13.891 11.147 17.664l4.459 2.059c4.631 2.229 6.518 4.63 6.518 8.918 0 5.144-1.373 7.374-5.146 7.374-3.772-.001-5.487-3.431-5.659-8.918H94.284c.172 12.176 6.346 19.722 17.322 19.722s17.665-6.517 17.665-18.35c-.001-9.947-3.774-15.263-12.52-19.379l-4.116-1.887c-4.116-1.715-5.659-3.43-5.659-7.718 0-4.287 1.715-6.002 5.145-6.002 3.773.001 4.802 3.43 4.802 8.404h11.49c-.171-12.005-5.831-19.38-16.464-19.38m38.931 0c-10.805 0-17.151 7.203-17.151 17.493.001 9.261 3.088 13.891 10.977 17.664l4.459 2.059c4.802 2.229 6.517 4.63 6.517 8.918 0 5.144-1.544 7.373-5.145 7.374s-5.488-3.43-5.488-8.918h-12.005c.171 12.176 6.345 19.722 17.321 19.722s17.664-6.517 17.664-18.35c0-9.947-3.773-15.263-12.347-19.379l-4.287-1.887c-4.116-1.715-5.489-3.43-5.489-7.718 0-4.287 1.544-6.002 4.974-6.002 3.773 0 4.802 3.43 4.974 8.404h11.49c-.343-12.005-5.66-19.38-16.464-19.38" clip-rule="evenodd"/></svg>