<svg xmlns="http://www.w3.org/2000/svg" width="187" height="192" fill="none" viewBox="0 0 187 192"><path fill="#00d0ff" d="m176.935 48.897.065.718v36.938c0 .914-.522 1.828-1.304 2.284l-31.04 17.882v35.373c0 .913-.456 1.827-1.304 2.284l-64.622 37.2-.456.261-.196.065a2.44 2.44 0 0 1-1.37 0l-.26-.065-.391-.196-64.688-37.2c-.847-.522-1.369-1.436-1.369-2.349V31.341l.065-.718.457-.914.26-.326.261-.196c.13 0 .196-.13.326-.196l32.344-18.6c.848-.522 1.891-.522 2.674 0L78.73 28.927c.13 0 .196.13.261.196l.326.196c0 .13.13.26.196.326l.195.261.196.392.065.26.13.653v69.179l26.867-15.467V49.615c0-.262 0-.457.13-.653l.065-.261.196-.457.196-.196.195-.326.326-.196.261-.261 32.344-18.6a2.65 2.65 0 0 1 2.608 0L175.696 47.2l.326.26.261.197.261.326.13.196c.13.13.13.326.196.457l.13.195zm-5.347 36.09V54.313l-11.281 6.527-15.651 8.94v30.674zm-32.279 24.8-59.21 33.871v31l59.21-34.132zM15.412 36.04v104.486l59.275 34.132v-31l-30.974-17.556-.26-.261c-.131 0-.197-.065-.262-.195l-.26-.261-.196-.261-.261-.653v-.392l-.13-.326V51.507L15.477 35.975zm29.67-20.232-26.93 15.598 26.93 15.468 26.866-15.468zm13.89 96.85 15.65-9.006V35.975L63.341 42.5l-15.65 9.006v67.612l11.28-6.526zm83.011-78.576-26.931 15.532 26.931 15.533 26.931-15.533zm-2.674 35.699-15.65-9.007-11.281-6.526v30.674l26.931 15.597zm-61.948 69.178 39.516-22.515 19.693-11.291-26.866-15.532-30.974 17.882-28.235 16.25z"/></svg>