<svg xmlns="http://www.w3.org/2000/svg" width="921" height="1050" fill="#15d0ff" style="aspect-radio:9.21/10.5" viewBox="0 0 921 1050"><path d="M652.665 2.913c1.17-.947 3.287-2.005 4.736-2.395 1.95-.501 32.482-.613 253.287-.446l3.065 1.727c2.117 1.226 3.566 2.562 6.407 7.074l.279 228.481-1.282 2.451c-.668 1.393-2.117 3.231-3.231 4.178s-3.009 2.061-4.179 2.395c-1.17.39-3.064.724-4.123.724s-2.953-.334-4.123-.724c-1.226-.334-3.232-1.56-4.457-2.674-1.282-1.058-2.786-3.063-3.399-4.456-1.112-2.39-1.114-3.781-1.28-102.196l-.002-.626c-.111-82.77-.222-100.761-.835-102.21-.446-1.002-1.505-2.673-2.396-3.731-.892-1.003-2.619-2.395-6.073-4.234l-228.438-.557-2.396-1.225c-1.282-.724-2.953-2.117-3.733-3.064-.78-1.002-1.783-3.063-2.229-4.623-.501-1.67-.724-3.676-.557-5.013.167-1.225.891-3.342 1.56-4.678.669-1.337 2.173-3.231 3.399-4.178"/><path d="M69.757 525.045c-.056-249.536 0-454.01.167-454.345v-.056c.223-.501 33.765-.668 330.121-.668l.279 2.06c.167 1.17 1.282 9.86 2.507 19.384 1.226 9.469 2.953 22.893 3.9 29.8.892 6.907 2.786 21.277 4.179 32.027 1.337 10.695 2.73 21.222 3.065 23.394.278 2.117 1.448 10.806 2.507 19.217 1.114 8.411 2.117 16.209 2.229 17.267.167 1.058.501 3.843.835 6.127.279 2.284 1.282 10.082 2.229 17.267s1.783 13.814 1.95 14.76c.111.892 1.727 13.201 3.566 27.293l.625 4.795c2.415 18.513 8.304 63.659 13.917 106.327 6.129 47.011 11.7 89.398 12.313 94.133s1.226 9.525 1.338 10.583c.167 1.058.891 6.851 1.671 12.811s1.56 11.418 1.672 12.087c.167.835.668 1.281 1.392 1.281.725 0 1.226-.446 1.393-1.281.168-.669.78-5.236 1.393-10.138.669-4.901 1.393-10.75 1.727-12.978.279-2.172.725-5.96 1.059-8.355.279-2.339.669-5.18.836-6.238.111-1.058 1.504-11.753 3.064-23.673 1.56-11.975 3.065-23.505 3.343-25.622.279-2.116.947-6.795 1.393-10.304s1.337-10.193 1.95-14.761c.557-4.623 1.226-9.469 1.393-10.861s.947-7.297 1.672-13.09c.78-5.848 2.061-15.484 2.786-21.444l.075-.575c.775-5.922 1.838-14.048 2.432-18.363.613-4.456 1.894-13.981 2.786-21.166.947-7.185 1.95-14.983 2.228-17.267.335-2.284.669-5.069.836-6.127.111-1.058 2.897-22.113 6.073-46.788 3.232-24.675 6.24-47.846 6.742-51.523.501-3.676 2.618-20.107 4.791-36.483 2.118-16.376 4.402-33.699 5.015-38.433s1.226-9.246 1.337-10.026c.112-.78.502-3.676.836-6.406.334-2.785 1.449-11.64 2.507-19.773a3387 3387 0 0 1 2.507-18.938l330.122.278v908.467L647.427 979V625.862c0-333.587-.055-353.138-.947-353.027-.836.167-1.616 3.955-5.293 26.068-2.34 14.259-9.36 56.201-15.489 93.297-6.129 37.041-15.545 93.855-20.95 126.161-5.348 32.306-12.592 76.03-16.102 97.196-3.51 21.111-12.759 77.034-20.615 124.211-7.8 47.178-19.389 116.859-25.685 154.847-6.296 37.987-11.979 72.465-13.929 84.106l-68.086.112c-64.464.167-68.086.111-68.364-.836-.112-.501-1.115-6.461-2.229-13.2-1.114-6.74-5.962-36.206-10.865-65.448-4.847-29.242-13.873-83.55-20.002-120.591-6.129-37.096-19.334-116.413-29.251-176.29-9.918-59.878-23.847-143.873-30.979-186.595-7.076-42.722-15.266-92.351-18.275-110.175-4.457-26.958-5.572-32.64-6.407-33.03-.892-.501-.947 16.487-.947 706.332l-203.088-.279z"/><path d="M4.569 805.049c1.114-.947 2.897-2.005 3.9-2.395 1.003-.334 2.842-.669 4.067-.669 1.226-.055 3.343.335 4.736.78 1.393.501 3.343 1.671 4.402 2.674 1.003 1.002 2.396 2.896 4.234 6.795l.112 100.427c.167 82.715.278 100.709.891 102.209.446.95 1.505 2.62 2.396 3.68.891 1 2.619 2.39 6.073 4.23l228.438.56 2.34 1.28c1.338.67 3.009 2.06 3.789 3.06.78.95 1.783 3.07 2.229 4.57.501 1.67.724 3.68.557 5.01-.167 1.23-.892 3.34-1.616 4.74-.668 1.39-2.229 3.28-3.454 4.23-1.282 1-3.455 1.95-5.238 2.34-2.34.5-33.04.67-252.675.39l-3.064-1.73c-2.117-1.22-3.566-2.56-6.407-7.07L0 811.677l1.281-2.451c.67-1.392 2.173-3.286 3.288-4.177"/></svg>