<svg xmlns="http://www.w3.org/2000/svg" width="284" height="192" fill="none" viewBox="0 0 284 192"><path fill="#00d0ff" d="M158.106 182h98.14a18.2 18.2 0 0 0 8.879-2.304 17.5 17.5 0 0 0 6.499-6.297 16.8 16.8 0 0 0 2.376-8.6c0-3.019-.824-5.984-2.384-8.599L205.709 45.63a17.5 17.5 0 0 0-6.498-6.295 18.2 18.2 0 0 0-8.877-2.305c-3.118 0-6.179.795-8.878 2.305a17.5 17.5 0 0 0-6.497 6.295l-16.853 28.29-32.948-55.323a17.5 17.5 0 0 0-6.501-6.293A18.2 18.2 0 0 0 109.778 10c-3.117 0-6.18.795-8.88 2.304a17.5 17.5 0 0 0-6.5 6.294L12.382 156.2A16.8 16.8 0 0 0 10 164.799c0 3.019.818 5.986 2.376 8.6a17.5 17.5 0 0 0 6.499 6.297A18.2 18.2 0 0 0 27.754 182h61.604c24.408 0 42.408-10.384 54.794-30.644l46.176-77.436 48.339 81.086h-64.445zm-69.754-27.021-42.99-.01 64.444-108.108 32.156 54.055-21.53 36.128c-8.225 13.145-17.569 17.934-32.079 17.934z"/></svg>