<svg xmlns="http://www.w3.org/2000/svg" width="212" height="192" fill="none" viewBox="0 0 212 192"><path fill="#00d0ff" d="M106.337 77.523c-10.156 0-18.39 8.198-18.39 18.309s8.234 18.309 18.39 18.309 18.391-8.197 18.391-18.309c0-10.111-8.234-18.309-18.391-18.309"/><path fill="#00d0ff" d="M201.986 95.998c0-14.374-13.369-26.98-34.657-35.276.285-1.869.542-3.717.725-5.531 2.1-20.654-2.899-35.56-14.068-41.981-12.496-7.184-30.146-1.97-47.993 12.249C88.147 11.24 70.496 6.026 58 13.209c-11.169 6.422-16.167 21.328-14.067 41.982.182 1.814.433 3.669.724 5.544a98 98 0 0 0-5.188 2.138C20.464 71.38 10 83.156 10 95.998c0 14.374 13.37 26.98 34.657 35.277a103 103 0 0 0-.724 5.531c-2.1 20.653 2.898 35.559 14.067 41.981a24.9 24.9 0 0 0 12.605 3.21c10.579 0 22.933-5.544 35.388-15.459 12.449 9.915 24.81 15.459 35.403 15.459a24.9 24.9 0 0 0 12.604-3.21c11.169-6.422 16.167-21.328 14.067-41.981-.182-1.815-.44-3.663-.724-5.531C188.63 122.992 202 110.365 202 95.998m-60.686-76.893a16.07 16.07 0 0 1 8.128 1.983c7.755 4.458 11.236 16.552 9.543 33.179a90 90 0 0 1-.413 3.433 162 162 0 0 0-27.092-5.66 161.6 161.6 0 0 0-18.49-20.551c10.586-8.148 20.522-12.384 28.317-12.384m-3.637 95.105a198 198 0 0 1-11.175 17.2 200 200 0 0 1-20.509 1.038c-6.847.005-13.69-.342-20.501-1.038a198 198 0 0 1-11.142-17.2 195 195 0 0 1-9.326-18.212 195 195 0 0 1 9.326-18.211 201 201 0 0 1 11.108-17.14c6.824-.714 13.68-1.07 20.542-1.065a201 201 0 0 1 20.502 1.038 201 201 0 0 1 11.148 17.167 197 197 0 0 1 9.327 18.211 197 197 0 0 1-9.327 18.212m13.986-6.745a142 142 0 0 1 5.283 17.874 143 143 0 0 1-18.124 4.351 203 203 0 0 0 6.773-10.921 232 232 0 0 0 6.096-11.277m-58.526 33.651c4.213.256 8.514.404 12.869.404s8.683-.148 12.902-.404c-4 4.772-8.31 9.278-12.902 13.49a142 142 0 0 1-12.869-13.49m-19.926-11.467a142.5 142.5 0 0 1-18.13-4.337 142 142 0 0 1 5.262-17.847 189 189 0 0 0 6.095 11.277 248 248 0 0 0 6.773 10.921M60.337 84.498a143 143 0 0 1-5.25-17.78 144 144 0 0 1 18.084-4.364 211 211 0 0 0-6.773 10.873 221 221 0 0 0-6.095 11.27m58.559-33.65a212 212 0 0 0-12.903-.405q-6.528 0-12.868.405a142 142 0 0 1 12.868-13.49 142 142 0 0 1 12.903 13.49m26.685 22.38a198 198 0 0 0-6.806-10.927 142.5 142.5 0 0 1 18.171 4.357 144 144 0 0 1-5.262 17.848 190 190 0 0 0-6.096-11.271m-92.525-18.96c-1.714-16.62 1.788-28.721 9.536-33.18a16.1 16.1 0 0 1 8.127-1.983c7.796 0 17.732 4.236 28.318 12.384a162 162 0 0 0-18.503 20.566A164.7 164.7 0 0 0 53.415 57.7a89 89 0 0 1-.407-3.427m-9.787 16.903q1.565-.675 3.19-1.349a162 162 0 0 0 8.636 26.171 162 162 0 0 0-8.642 26.225c-17.258-7.049-27.261-16.816-27.261-26.225 0-8.917 8.804-17.962 24.077-24.822m19.344 99.726c-7.748-4.459-11.25-16.559-9.536-33.179.108-1.133.25-2.273.406-3.433a162.3 162.3 0 0 0 27.092 5.659 162 162 0 0 0 18.49 20.565c-14.758 11.352-28.243 15.096-36.432 10.388m96.393-33.179c1.693 16.626-1.788 28.72-9.543 33.179-8.182 4.721-21.673.964-36.425-10.388a162 162 0 0 0 18.483-20.565 162 162 0 0 0 27.092-5.659 90 90 0 0 1 .413 3.433m6.624-15.514a162.5 162.5 0 0 0-8.649-26.21 162.5 162.5 0 0 0 8.643-26.226c17.223 7.049 27.254 16.816 27.254 26.225s-10.004 19.176-27.261 26.225"/></svg>