<svg xmlns="http://www.w3.org/2000/svg" width="307" height="192" fill="none" viewBox="0 0 307 192"><path fill="#00d0ff" fill-rule="evenodd" d="M153.5 10q-57.4 0-71.75 57.333 21.525-28.665 50.225-21.5c10.917 2.724 18.719 10.639 27.355 19.393C173.399 79.49 189.683 96 225.25 96q57.4 0 71.75-57.333-21.525 28.665-50.225 21.5c-10.917-2.724-18.719-10.639-27.355-19.393C205.351 26.51 189.067 10 153.5 10M81.75 96Q24.35 96 10 153.333q21.525-28.666 50.225-21.5c10.917 2.729 18.719 10.639 27.355 19.393C101.65 165.49 117.933 182 153.5 182q57.4 0 71.75-57.333-21.525 28.666-50.225 21.5c-10.917-2.724-18.719-10.639-27.355-19.393C133.601 112.51 117.317 96 81.75 96" clip-rule="evenodd"/></svg>