<svg xmlns="http://www.w3.org/2000/svg" width="192" height="192" fill="none" viewBox="0 0 192 192"><path fill="#00d0ff" fill-rule="evenodd" d="M168.562 10C175.984 10 182 16.016 182 23.438v145.124c0 7.422-6.016 13.438-13.438 13.438H23.438C16.016 182 10 175.984 10 168.562V23.438C10 16.016 16.016 10 23.438 10zm-25.106 71.89q-6.615 0-12.536 1.422-5.92 1.42-10.418 4.435-4.497 3.017-7.109 7.685t-2.612 11.162q0 8.293 4.789 14.151 4.788 5.856 14.537 9.916 3.6 1.466 7.139 3.074 3.309 1.507 5.718 3.131t3.801 3.537 1.393 4.349a6.66 6.66 0 0 1-.871 3.335q-.87 1.536-2.64 2.668-1.77 1.13-4.412 1.768-2.64.638-6.181.638-6.036 0-11.955-2.117t-10.97-6.35v18.557q4.527 2.32 10.709 3.48 6.18 1.16 13.029 1.16 6.674 0 12.681-1.277t10.534-4.203a21.44 21.44 0 0 0 7.168-7.655q2.641-4.727 2.641-11.685 0-5.046-1.509-8.844a20.7 20.7 0 0 0-4.353-6.756q-2.845-2.957-6.819-5.306-3.976-2.349-8.968-4.436a114 114 0 0 1-6.558-2.928q-2.902-1.421-4.933-2.9-2.032-1.479-3.134-3.132-1.103-1.653-1.103-3.74 0-1.914.986-3.451.988-1.536 2.787-2.638t4.411-1.711q2.611-.609 5.804-.609 2.322 0 4.904.348t5.194 1.073a36 36 0 0 1 5.079 1.827 28 28 0 0 1 4.555 2.551V85.08q-4.236-1.624-9.257-2.407-5.02-.782-11.521-.782M37.546 98.515h23.748v68.033H80.2V98.514h23.863v-15.28H37.547z" clip-rule="evenodd"/></svg>